TITLE ""
FILE "Disc6Track16.mp3" MP3
  TRACK 01 AUDIO
    TITLE "Disc6Track16_01"
    INDEX 01 00:00:00
  TRACK 02 AUDIO
    TITLE "Disc6Track16_02"
    INDEX 01 00:01:18
  TRACK 03 AUDIO
    TITLE "Disc6Track16_03"
    INDEX 01 00:02:43
  TRACK 04 AUDIO
    TITLE "Disc6Track16_04"
    INDEX 01 00:03:73
  TRACK 05 AUDIO
    TITLE "Disc6Track16_05"
    INDEX 01 00:06:09
  TRACK 06 AUDIO
    TITLE "Disc6Track16_06"
    INDEX 01 00:06:40
  TRACK 07 AUDIO
    TITLE "Disc6Track16_07"
    INDEX 01 00:08:02
  TRACK 08 AUDIO
    TITLE "Disc6Track16_08"
    INDEX 01 00:09:35
  TRACK 09 AUDIO
    TITLE "Disc6Track16_09"
    INDEX 01 00:10:73
  TRACK 10 AUDIO
    TITLE "Disc6Track16_10"
    INDEX 01 00:13:15
  TRACK 11 AUDIO
    TITLE "Disc6Track16_11"
    INDEX 01 00:13:44
  TRACK 12 AUDIO
    TITLE "Disc6Track16_12"
    INDEX 01 00:15:00
  TRACK 13 AUDIO
    TITLE "Disc6Track16_13"
    INDEX 01 00:17:30
  TRACK 14 AUDIO
    TITLE "Disc6Track16_14"
    INDEX 01 00:18:57
  TRACK 15 AUDIO
    TITLE "Disc6Track16_15"
    INDEX 01 00:25:08
  TRACK 16 AUDIO
    TITLE "Disc6Track16_16"
    INDEX 01 00:25:38
  TRACK 17 AUDIO
    TITLE "Disc6Track16_17"
    INDEX 01 00:26:59
  TRACK 18 AUDIO
    TITLE "Disc6Track16_18"
    INDEX 01 00:28:13
  TRACK 19 AUDIO
    TITLE "Disc6Track16_19"
    INDEX 01 00:29:34
  TRACK 20 AUDIO
    TITLE "Disc6Track16_20"
    INDEX 01 00:32:20
  TRACK 21 AUDIO
    TITLE "Disc6Track16_21"
    INDEX 01 00:32:51
  TRACK 22 AUDIO
    TITLE "Disc6Track16_22"
    INDEX 01 00:33:65
  TRACK 23 AUDIO
    TITLE "Disc6Track16_23"
    INDEX 01 00:35:28
  TRACK 24 AUDIO
    TITLE "Disc6Track16_24"
    INDEX 01 00:36:45
  TRACK 25 AUDIO
    TITLE "Disc6Track16_25"
    INDEX 01 00:37:04
  TRACK 26 AUDIO
    TITLE "Disc6Track16_26"
    INDEX 01 00:38:21
  TRACK 27 AUDIO
    TITLE "Disc6Track16_27"
    INDEX 01 00:41:27
  TRACK 28 AUDIO
    TITLE "Disc6Track16_28"
    INDEX 01 00:42:42
  TRACK 29 AUDIO
    TITLE "Disc6Track16_29"
    INDEX 01 00:45:68
  TRACK 30 AUDIO
    TITLE "Disc6Track16_30"
    INDEX 01 00:46:22
  TRACK 31 AUDIO
    TITLE "Disc6Track16_31"
    INDEX 01 00:47:51
  TRACK 32 AUDIO
    TITLE "Disc6Track16_32"
    INDEX 01 00:50:22
  TRACK 33 AUDIO
    TITLE "Disc6Track16_33"
    INDEX 01 00:51:47
  TRACK 34 AUDIO
    TITLE "Disc6Track16_34"
    INDEX 01 00:55:07
  TRACK 35 AUDIO
    TITLE "Disc6Track16_35"
    INDEX 01 00:55:37
  TRACK 36 AUDIO
    TITLE "Disc6Track16_36"
    INDEX 01 00:56:54
  TRACK 37 AUDIO
    TITLE "Disc6Track16_37"
    INDEX 01 00:59:15
  TRACK 38 AUDIO
    TITLE "Disc6Track16_38"
    INDEX 01 01:00:28
  TRACK 39 AUDIO
    TITLE "Disc6Track16_39"
    INDEX 01 01:04:51
  TRACK 40 AUDIO
    TITLE "Disc6Track16_40"
    INDEX 01 01:05:04
  TRACK 41 AUDIO
    TITLE "Disc6Track16_41"
    INDEX 01 01:06:29
  TRACK 42 AUDIO
    TITLE "Disc6Track16_42"
    INDEX 01 01:07:50
  TRACK 43 AUDIO
    TITLE "Disc6Track16_43"
    INDEX 01 01:08:71
  TRACK 44 AUDIO
    TITLE "Disc6Track16_44"
    INDEX 01 01:14:54
  TRACK 45 AUDIO
    TITLE "Disc6Track16_45"
    INDEX 01 01:15:10
  TRACK 46 AUDIO
    TITLE "Disc6Track16_46"
    INDEX 01 01:16:39
  TRACK 47 AUDIO
    TITLE "Disc6Track16_47"
    INDEX 01 01:19:49
  TRACK 48 AUDIO
    TITLE "Disc6Track16_48"
    INDEX 01 01:21:01
  TRACK 49 AUDIO
    TITLE "Disc6Track16_49"
    INDEX 01 01:24:58
  TRACK 50 AUDIO
    TITLE "Disc6Track16_50"
    INDEX 01 01:25:10
  TRACK 51 AUDIO
    TITLE "Disc6Track16_51"
    INDEX 01 01:26:55
  TRACK 52 AUDIO
    TITLE "Disc6Track16_52"
    INDEX 01 01:29:36
  TRACK 53 AUDIO
    TITLE "Disc6Track16_53"
    INDEX 01 01:31:07
